<mxfile host="app.diagrams.net" agent="Mozilla/5.0 (Windows NT 10.0; Win64; x64) AppleWebKit/537.36 (KHTML, like Gecko) Chrome/138.0.0.0 Safari/537.36" version="28.0.4">
  <diagram name="Página-1" id="dzrdLyxJ1vX4iYGQoqoP">
    <mxGraphModel grid="1" page="1" gridSize="10" guides="1" tooltips="1" connect="1" arrows="1" fold="1" pageScale="1" pageWidth="827" pageHeight="1169" math="0" shadow="0">
      <root>
        <mxCell id="0" />
        <mxCell id="1" parent="0" />
        <mxCell id="lES7FEq3Hv0cmV7WoSkA-1" value="Actor" style="shape=umlActor;verticalLabelPosition=bottom;verticalAlign=top;html=1;outlineConnect=0;" vertex="1" parent="1">
          <mxGeometry x="270" y="150" width="30" height="60" as="geometry" />
        </mxCell>
        <mxCell id="lES7FEq3Hv0cmV7WoSkA-2" value="&lt;span style=&quot;color: rgb(56, 58, 66); font-family: jetbrains, &amp;quot;jetbrains Fallback&amp;quot;, Menlo, Monaco, monospace, monospace; font-size: 14px; text-align: left; white-space: pre; background-color: rgb(255, 255, 255);&quot;&gt;Interfaz&lt;/span&gt;" style="rounded=1;whiteSpace=wrap;html=1;" vertex="1" parent="1">
          <mxGeometry x="540" y="125" width="120" height="90" as="geometry" />
        </mxCell>
        <mxCell id="lES7FEq3Hv0cmV7WoSkA-3" value="&lt;div&gt;&lt;br/&gt;&lt;/div&gt;" style="endArrow=none;html=1;rounded=0;exitX=1;exitY=0.3333333333333333;exitDx=0;exitDy=0;exitPerimeter=0;" edge="1" parent="1" source="lES7FEq3Hv0cmV7WoSkA-1" target="lES7FEq3Hv0cmV7WoSkA-2">
          <mxGeometry x="-0.04" y="50" width="50" height="50" relative="1" as="geometry">
            <mxPoint x="320" y="170" as="sourcePoint" />
            <mxPoint x="550" y="170" as="targetPoint" />
            <mxPoint as="offset" />
          </mxGeometry>
        </mxCell>
        <mxCell id="lES7FEq3Hv0cmV7WoSkA-4" value="" style="endArrow=classic;html=1;rounded=0;" edge="1" parent="1">
          <mxGeometry width="50" height="50" relative="1" as="geometry">
            <mxPoint x="340" y="160" as="sourcePoint" />
            <mxPoint x="490" y="160" as="targetPoint" />
          </mxGeometry>
        </mxCell>
        <mxCell id="lES7FEq3Hv0cmV7WoSkA-5" value="" style="endArrow=none;html=1;rounded=0;" edge="1" parent="1">
          <mxGeometry x="-0.04" y="50" width="50" height="50" relative="1" as="geometry">
            <mxPoint x="660" y="170" as="sourcePoint" />
            <mxPoint x="910" y="169.5" as="targetPoint" />
            <mxPoint as="offset" />
          </mxGeometry>
        </mxCell>
        <mxCell id="lES7FEq3Hv0cmV7WoSkA-6" value="&lt;div style=&quot;text-align: left;&quot;&gt;&lt;font face=&quot;jetbrains, jetbrains Fallback, Menlo, Monaco, monospace, monospace&quot; color=&quot;#383a42&quot;&gt;&lt;span style=&quot;font-size: 14px; white-space: pre; background-color: rgb(255, 255, 255);&quot;&gt;2.&lt;/span&gt;&lt;/font&gt;&lt;span style=&quot;background-color: rgb(255, 255, 255); color: rgb(56, 58, 66); font-family: jetbrains, &amp;quot;jetbrains Fallback&amp;quot;, Menlo, Monaco, monospace, monospace; font-size: 14px; white-space: pre;&quot;&gt;Envía solicitud cierre&lt;/span&gt;&lt;/div&gt;" style="text;html=1;align=center;verticalAlign=middle;whiteSpace=wrap;rounded=0;" vertex="1" parent="1">
          <mxGeometry x="767" y="110" width="60" height="30" as="geometry" />
        </mxCell>
        <mxCell id="lES7FEq3Hv0cmV7WoSkA-7" value="&#xa;&lt;span style=&quot;color: rgb(56, 58, 66); font-family: jetbrains, &amp;quot;jetbrains Fallback&amp;quot;, Menlo, Monaco, monospace, monospace; font-size: 14px; font-style: normal; font-variant-ligatures: normal; font-variant-caps: normal; font-weight: 400; letter-spacing: normal; orphans: 2; text-align: left; text-indent: 0px; text-transform: none; widows: 2; word-spacing: 0px; -webkit-text-stroke-width: 0px; white-space: pre; background-color: rgb(255, 255, 255); text-decoration-thickness: initial; text-decoration-style: initial; text-decoration-color: initial; display: inline !important; float: none;&quot;&gt;Servidor&lt;/span&gt;&#xa;&#xa;" style="rounded=1;whiteSpace=wrap;html=1;" vertex="1" parent="1">
          <mxGeometry x="910" y="140" width="120" height="60" as="geometry" />
        </mxCell>
        <mxCell id="lES7FEq3Hv0cmV7WoSkA-8" value="" style="endArrow=none;html=1;rounded=0;exitX=1;exitY=0.3333333333333333;exitDx=0;exitDy=0;exitPerimeter=0;" edge="1" parent="1">
          <mxGeometry x="-0.04" y="50" width="50" height="50" relative="1" as="geometry">
            <mxPoint x="290" y="179.5" as="sourcePoint" />
            <mxPoint x="540" y="179.5" as="targetPoint" />
            <mxPoint as="offset" />
          </mxGeometry>
        </mxCell>
        <mxCell id="lES7FEq3Hv0cmV7WoSkA-10" value="&lt;span style=&quot;color: rgb(56, 58, 66); font-family: jetbrains, &amp;quot;jetbrains Fallback&amp;quot;, Menlo, Monaco, monospace, monospace; font-size: 14px; text-align: left; white-space: pre; background-color: rgb(255, 255, 255);&quot;&gt;1.Solicita cerrar sesión&lt;/span&gt;" style="text;html=1;align=center;verticalAlign=middle;whiteSpace=wrap;rounded=0;" vertex="1" parent="1">
          <mxGeometry x="380" y="125" width="60" height="30" as="geometry" />
        </mxCell>
        <mxCell id="lES7FEq3Hv0cmV7WoSkA-12" value="&lt;span style=&quot;color: rgb(56, 58, 66); font-family: jetbrains, &amp;quot;jetbrains Fallback&amp;quot;, Menlo, Monaco, monospace, monospace; font-size: 14px; text-align: left; white-space: pre; background-color: rgb(255, 255, 255);&quot;&gt;3. Valida sesión activa&lt;/span&gt;" style="text;html=1;align=center;verticalAlign=middle;whiteSpace=wrap;rounded=0;" vertex="1" parent="1">
          <mxGeometry x="1060" y="240" width="60" height="30" as="geometry" />
        </mxCell>
        <mxCell id="lES7FEq3Hv0cmV7WoSkA-13" value="" style="endArrow=classic;html=1;rounded=0;" edge="1" parent="1">
          <mxGeometry width="50" height="50" relative="1" as="geometry">
            <mxPoint x="720" y="155" as="sourcePoint" />
            <mxPoint x="870" y="155" as="targetPoint" />
          </mxGeometry>
        </mxCell>
        <mxCell id="lES7FEq3Hv0cmV7WoSkA-14" value="&lt;span style=&quot;color: rgb(56, 58, 66); font-family: jetbrains, &amp;quot;jetbrains Fallback&amp;quot;, Menlo, Monaco, monospace, monospace; font-size: 14px; text-align: left; white-space: pre; background-color: rgb(255, 255, 255);&quot;&gt;Autenticación&lt;/span&gt;" style="rounded=1;whiteSpace=wrap;html=1;" vertex="1" parent="1">
          <mxGeometry x="910" y="360" width="120" height="60" as="geometry" />
        </mxCell>
        <mxCell id="lES7FEq3Hv0cmV7WoSkA-15" value="" style="endArrow=none;html=1;rounded=0;entryX=0.5;entryY=1;entryDx=0;entryDy=0;exitX=0.5;exitY=0;exitDx=0;exitDy=0;" edge="1" parent="1" source="lES7FEq3Hv0cmV7WoSkA-14" target="lES7FEq3Hv0cmV7WoSkA-7">
          <mxGeometry width="50" height="50" relative="1" as="geometry">
            <mxPoint x="910" y="300" as="sourcePoint" />
            <mxPoint x="960" y="250" as="targetPoint" />
          </mxGeometry>
        </mxCell>
        <mxCell id="lES7FEq3Hv0cmV7WoSkA-16" value="" style="endArrow=classic;html=1;rounded=0;" edge="1" parent="1">
          <mxGeometry width="50" height="50" relative="1" as="geometry">
            <mxPoint x="990" y="220" as="sourcePoint" />
            <mxPoint x="990" y="320" as="targetPoint" />
          </mxGeometry>
        </mxCell>
        <mxCell id="lES7FEq3Hv0cmV7WoSkA-18" value="" style="endArrow=none;html=1;rounded=0;entryX=0.5;entryY=1;entryDx=0;entryDy=0;exitX=0.5;exitY=0;exitDx=0;exitDy=0;" edge="1" parent="1">
          <mxGeometry width="50" height="50" relative="1" as="geometry">
            <mxPoint x="950" y="360" as="sourcePoint" />
            <mxPoint x="950" y="200" as="targetPoint" />
          </mxGeometry>
        </mxCell>
        <mxCell id="lES7FEq3Hv0cmV7WoSkA-19" value="" style="endArrow=block;dashed=1;endFill=0;endSize=12;html=1;rounded=0;" edge="1" parent="1">
          <mxGeometry width="160" relative="1" as="geometry">
            <mxPoint x="930" y="350" as="sourcePoint" />
            <mxPoint x="930" y="240" as="targetPoint" />
          </mxGeometry>
        </mxCell>
        <mxCell id="lES7FEq3Hv0cmV7WoSkA-20" value="&lt;span style=&quot;color: rgb(56, 58, 66); font-family: jetbrains, &amp;quot;jetbrains Fallback&amp;quot;, Menlo, Monaco, monospace, monospace; font-size: 14px; text-align: left; white-space: pre; background-color: rgb(255, 255, 255);&quot;&gt; 4. Sesión válida&lt;/span&gt;" style="text;html=1;align=center;verticalAlign=middle;whiteSpace=wrap;rounded=0;" vertex="1" parent="1">
          <mxGeometry x="840" y="290" width="60" height="30" as="geometry" />
        </mxCell>
        <mxCell id="lES7FEq3Hv0cmV7WoSkA-21" value="&#xa;&lt;span style=&quot;color: rgb(56, 58, 66); font-family: jetbrains, &amp;quot;jetbrains Fallback&amp;quot;, Menlo, Monaco, monospace, monospace; font-size: 14px; font-style: normal; font-variant-ligatures: normal; font-variant-caps: normal; font-weight: 400; letter-spacing: normal; orphans: 2; text-align: left; text-indent: 0px; text-transform: none; widows: 2; word-spacing: 0px; -webkit-text-stroke-width: 0px; white-space: pre; background-color: rgb(255, 255, 255); text-decoration-thickness: initial; text-decoration-style: initial; text-decoration-color: initial; display: inline !important; float: none;&quot;&gt;Servicio Solicitudes&lt;/span&gt;&#xa;&#xa;" style="rounded=1;whiteSpace=wrap;html=1;" vertex="1" parent="1">
          <mxGeometry x="1280" y="140" width="120" height="60" as="geometry" />
        </mxCell>
        <mxCell id="lES7FEq3Hv0cmV7WoSkA-26" value="" style="endArrow=classic;html=1;rounded=0;" edge="1" parent="1">
          <mxGeometry width="50" height="50" relative="1" as="geometry">
            <mxPoint x="1380" y="100" as="sourcePoint" />
            <mxPoint x="1450" y="160" as="targetPoint" />
            <Array as="points">
              <mxPoint x="1450" y="100" />
            </Array>
          </mxGeometry>
        </mxCell>
        <mxCell id="lES7FEq3Hv0cmV7WoSkA-27" value="&lt;div&gt;&lt;span style=&quot;color: rgb(56, 58, 66); font-family: jetbrains, &amp;quot;jetbrains Fallback&amp;quot;, Menlo, Monaco, monospace, monospace; font-size: 14px; text-align: left; white-space: pre; background-color: rgb(255, 255, 255);&quot;&gt;6. Invalida token&lt;br&gt;&lt;/span&gt;&lt;/div&gt;&lt;div&gt;&lt;span style=&quot;color: rgb(56, 58, 66); font-family: jetbrains, &amp;quot;jetbrains Fallback&amp;quot;, Menlo, Monaco, monospace, monospace; font-size: 14px; text-align: left; white-space: pre; background-color: rgb(255, 255, 255);&quot;&gt;7. Limpia datos sesión&lt;/span&gt;&lt;/div&gt;&lt;div&gt;&lt;span style=&quot;color: rgb(56, 58, 66); font-family: jetbrains, &amp;quot;jetbrains Fallback&amp;quot;, Menlo, Monaco, monospace, monospace; font-size: 14px; text-align: left; white-space: pre; background-color: rgb(255, 255, 255);&quot;&gt;&lt;br&gt;&lt;/span&gt;&lt;/div&gt;" style="text;html=1;align=center;verticalAlign=middle;whiteSpace=wrap;rounded=0;" vertex="1" parent="1">
          <mxGeometry x="1470" y="70" width="60" height="30" as="geometry" />
        </mxCell>
        <mxCell id="lES7FEq3Hv0cmV7WoSkA-28" value="&lt;span style=&quot;color: rgb(56, 58, 66); font-family: jetbrains, &amp;quot;jetbrains Fallback&amp;quot;, Menlo, Monaco, monospace, monospace; font-size: 14px; text-align: left; white-space: pre; background-color: rgb(255, 255, 255);&quot;&gt;Base de Datos&lt;/span&gt;" style="rounded=1;whiteSpace=wrap;html=1;" vertex="1" parent="1">
          <mxGeometry x="1280" y="360" width="120" height="60" as="geometry" />
        </mxCell>
        <mxCell id="lES7FEq3Hv0cmV7WoSkA-29" value="" style="endArrow=none;html=1;rounded=0;exitX=0.75;exitY=0;exitDx=0;exitDy=0;entryX=0.75;entryY=1;entryDx=0;entryDy=0;" edge="1" parent="1" source="lES7FEq3Hv0cmV7WoSkA-28" target="lES7FEq3Hv0cmV7WoSkA-21">
          <mxGeometry width="50" height="50" relative="1" as="geometry">
            <mxPoint x="1349.47" y="360" as="sourcePoint" />
            <mxPoint x="1360" y="210" as="targetPoint" />
          </mxGeometry>
        </mxCell>
        <mxCell id="lES7FEq3Hv0cmV7WoSkA-30" value="&lt;span style=&quot;color: rgb(56, 58, 66); font-family: jetbrains, &amp;quot;jetbrains Fallback&amp;quot;, Menlo, Monaco, monospace, monospace; font-size: 14px; text-align: left; white-space: pre; background-color: rgb(255, 255, 255);&quot;&gt;8. Actualiza estado sesión&lt;/span&gt;" style="text;html=1;align=center;verticalAlign=middle;whiteSpace=wrap;rounded=0;" vertex="1" parent="1">
          <mxGeometry x="1450" y="260" width="60" height="30" as="geometry" />
        </mxCell>
        <mxCell id="lES7FEq3Hv0cmV7WoSkA-31" value="" style="endArrow=classic;html=1;rounded=0;" edge="1" parent="1">
          <mxGeometry width="50" height="50" relative="1" as="geometry">
            <mxPoint x="1380" y="220" as="sourcePoint" />
            <mxPoint x="1380" y="320" as="targetPoint" />
          </mxGeometry>
        </mxCell>
        <mxCell id="lES7FEq3Hv0cmV7WoSkA-32" value="" style="endArrow=none;html=1;rounded=0;exitX=0.5;exitY=0;exitDx=0;exitDy=0;entryX=0.5;entryY=1;entryDx=0;entryDy=0;" edge="1" parent="1" source="lES7FEq3Hv0cmV7WoSkA-28" target="lES7FEq3Hv0cmV7WoSkA-21">
          <mxGeometry width="50" height="50" relative="1" as="geometry">
            <mxPoint x="1330" y="350" as="sourcePoint" />
            <mxPoint x="1334" y="230" as="targetPoint" />
          </mxGeometry>
        </mxCell>
        <mxCell id="lES7FEq3Hv0cmV7WoSkA-33" value="&lt;span style=&quot;color: rgb(56, 58, 66); font-family: jetbrains, &amp;quot;jetbrains Fallback&amp;quot;, Menlo, Monaco, monospace, monospace; font-size: 14px; text-align: left; white-space: pre; background-color: rgb(255, 255, 255);&quot;&gt;9. Confirma actualización&lt;/span&gt;" style="text;html=1;align=center;verticalAlign=middle;whiteSpace=wrap;rounded=0;" vertex="1" parent="1">
          <mxGeometry x="1190" y="280" width="60" height="30" as="geometry" />
        </mxCell>
        <mxCell id="lES7FEq3Hv0cmV7WoSkA-34" value="" style="endArrow=block;dashed=1;endFill=0;endSize=12;html=1;rounded=0;" edge="1" parent="1">
          <mxGeometry width="160" relative="1" as="geometry">
            <mxPoint x="1310" y="338" as="sourcePoint" />
            <mxPoint x="1310" y="228" as="targetPoint" />
          </mxGeometry>
        </mxCell>
        <mxCell id="lES7FEq3Hv0cmV7WoSkA-37" value="" style="endArrow=none;html=1;rounded=0;exitX=1;exitY=0.3333333333333333;exitDx=0;exitDy=0;exitPerimeter=0;" edge="1" parent="1">
          <mxGeometry x="-0.04" y="50" width="50" height="50" relative="1" as="geometry">
            <mxPoint x="660" y="179.47" as="sourcePoint" />
            <mxPoint x="910" y="179.47" as="targetPoint" />
            <mxPoint as="offset" />
          </mxGeometry>
        </mxCell>
        <mxCell id="lES7FEq3Hv0cmV7WoSkA-38" value="" style="endArrow=block;dashed=1;endFill=0;endSize=12;html=1;rounded=0;" edge="1" parent="1">
          <mxGeometry width="160" relative="1" as="geometry">
            <mxPoint x="890" y="190" as="sourcePoint" />
            <mxPoint x="690" y="190" as="targetPoint" />
          </mxGeometry>
        </mxCell>
        <mxCell id="lES7FEq3Hv0cmV7WoSkA-39" value="&lt;span style=&quot;color: rgb(56, 58, 66); font-family: jetbrains, &amp;quot;jetbrains Fallback&amp;quot;, Menlo, Monaco, monospace, monospace; font-size: 14px; text-align: left; white-space: pre; background-color: rgb(255, 255, 255);&quot;&gt; 11. Confirma cierre&lt;/span&gt;" style="text;html=1;align=center;verticalAlign=middle;whiteSpace=wrap;rounded=0;" vertex="1" parent="1">
          <mxGeometry x="760" y="191" width="60" height="30" as="geometry" />
        </mxCell>
        <mxCell id="lES7FEq3Hv0cmV7WoSkA-40" value="" style="endArrow=block;dashed=1;endFill=0;endSize=12;html=1;rounded=0;" edge="1" parent="1">
          <mxGeometry width="160" relative="1" as="geometry">
            <mxPoint x="514" y="191" as="sourcePoint" />
            <mxPoint x="314" y="191" as="targetPoint" />
          </mxGeometry>
        </mxCell>
        <mxCell id="lES7FEq3Hv0cmV7WoSkA-41" value="&lt;span style=&quot;color: rgb(56, 58, 66); font-family: jetbrains, &amp;quot;jetbrains Fallback&amp;quot;, Menlo, Monaco, monospace, monospace; font-size: 14px; text-align: left; white-space-collapse: preserve; background-color: rgb(255, 255, 255);&quot;&gt; 12. Sesion cerrada exitosamente&lt;/span&gt;" style="text;html=1;align=center;verticalAlign=middle;resizable=0;points=[];autosize=1;strokeColor=none;fillColor=none;" vertex="1" parent="1">
          <mxGeometry x="300" y="210" width="270" height="30" as="geometry" />
        </mxCell>
        <mxCell id="lES7FEq3Hv0cmV7WoSkA-47" value="" style="endArrow=none;html=1;rounded=0;" edge="1" parent="1">
          <mxGeometry x="-0.04" y="50" width="50" height="50" relative="1" as="geometry">
            <mxPoint x="1030" y="160" as="sourcePoint" />
            <mxPoint x="1280" y="159.5" as="targetPoint" />
            <mxPoint as="offset" />
          </mxGeometry>
        </mxCell>
        <mxCell id="lES7FEq3Hv0cmV7WoSkA-48" value="&lt;div style=&quot;text-align: left;&quot;&gt;&lt;span style=&quot;color: rgb(56, 58, 66); font-family: jetbrains, &amp;quot;jetbrains Fallback&amp;quot;, Menlo, Monaco, monospace, monospace; font-size: 14px; white-space: pre; background-color: rgb(255, 255, 255);&quot;&gt; 5. Procesa cierre sesión&lt;/span&gt;&lt;/div&gt;" style="text;html=1;align=center;verticalAlign=middle;whiteSpace=wrap;rounded=0;" vertex="1" parent="1">
          <mxGeometry x="1137" y="100" width="60" height="30" as="geometry" />
        </mxCell>
        <mxCell id="lES7FEq3Hv0cmV7WoSkA-49" value="" style="endArrow=classic;html=1;rounded=0;" edge="1" parent="1">
          <mxGeometry width="50" height="50" relative="1" as="geometry">
            <mxPoint x="1090" y="145" as="sourcePoint" />
            <mxPoint x="1240" y="145" as="targetPoint" />
          </mxGeometry>
        </mxCell>
        <mxCell id="lES7FEq3Hv0cmV7WoSkA-50" value="" style="endArrow=none;html=1;rounded=0;entryX=1;entryY=0.5;entryDx=0;entryDy=0;exitX=0.5;exitY=0;exitDx=0;exitDy=0;" edge="1" parent="1" source="lES7FEq3Hv0cmV7WoSkA-21" target="lES7FEq3Hv0cmV7WoSkA-21">
          <mxGeometry x="-0.04" y="50" width="50" height="50" relative="1" as="geometry">
            <mxPoint x="1450" y="140" as="sourcePoint" />
            <mxPoint x="1690" y="140" as="targetPoint" />
            <mxPoint as="offset" />
            <Array as="points">
              <mxPoint x="1340" y="110" />
              <mxPoint x="1440" y="110" />
              <mxPoint x="1440" y="170" />
            </Array>
          </mxGeometry>
        </mxCell>
        <mxCell id="lES7FEq3Hv0cmV7WoSkA-53" value="" style="endArrow=none;html=1;rounded=0;exitX=1;exitY=0.5;exitDx=0;exitDy=0;" edge="1" parent="1" source="lES7FEq3Hv0cmV7WoSkA-7" target="lES7FEq3Hv0cmV7WoSkA-21">
          <mxGeometry x="-0.04" y="50" width="50" height="50" relative="1" as="geometry">
            <mxPoint x="1140" y="180" as="sourcePoint" />
            <mxPoint x="1390" y="180" as="targetPoint" />
            <mxPoint as="offset" />
          </mxGeometry>
        </mxCell>
        <mxCell id="lES7FEq3Hv0cmV7WoSkA-54" value="" style="endArrow=block;dashed=1;endFill=0;endSize=12;html=1;rounded=0;" edge="1" parent="1">
          <mxGeometry width="160" relative="1" as="geometry">
            <mxPoint x="1250" y="179.44" as="sourcePoint" />
            <mxPoint x="1050" y="179.44" as="targetPoint" />
          </mxGeometry>
        </mxCell>
        <mxCell id="lES7FEq3Hv0cmV7WoSkA-56" value="&lt;span style=&quot;color: rgb(56, 58, 66); font-family: jetbrains, &amp;quot;jetbrains Fallback&amp;quot;, Menlo, Monaco, monospace, monospace; font-size: 14px; text-align: left; white-space: pre; background-color: rgb(255, 255, 255);&quot;&gt;10. Sesión cerrada&lt;/span&gt;" style="text;html=1;align=center;verticalAlign=middle;whiteSpace=wrap;rounded=0;" vertex="1" parent="1">
          <mxGeometry x="1130" y="185" width="60" height="30" as="geometry" />
        </mxCell>
      </root>
    </mxGraphModel>
  </diagram>
</mxfile>
